<?xml version="1.0" encoding="UTF-8"?>
<svg width="800" height="400" xmlns="http://www.w3.org/2000/svg">
  <!-- Component Tree Diagram -->
  <style>
    .title { font: bold 24px sans-serif; }
    .component { font: 16px sans-serif; }
    .box { fill: #f0f0f0; stroke: #666; stroke-width: 2; rx: 10; }
    .arrow { stroke: #666; stroke-width: 2; marker-end: url(#arrowhead); }
  </style>
  
  <!-- Arrow marker definition -->
  <defs>
    <marker id="arrowhead" markerWidth="10" markerHeight="7" refX="9" refY="3.5" orient="auto">
      <polygon points="0 0, 10 3.5, 0 7" fill="#666"/>
    </marker>
  </defs>
  
  <!-- Title -->
  <text x="400" y="40" text-anchor="middle" class="title">Component Tree Structure</text>
  
  <!-- App Component -->
  <rect x="350" y="60" width="100" height="50" class="box"/>
  <text x="400" y="90" text-anchor="middle" class="component">App</text>
  
  <!-- Header Component -->
  <rect x="200" y="160" width="120" height="50" class="box"/>
  <text x="260" y="190" text-anchor="middle" class="component">Header</text>
  
  <!-- Main Content -->
  <rect x="350" y="160" width="100" height="50" class="box"/>
  <text x="400" y="190" text-anchor="middle" class="component">MainContent</text>
  
  <!-- Footer Component -->
  <rect x="480" y="160" width="120" height="50" class="box"/>
  <text x="540" y="190" text-anchor="middle" class="component">Footer</text>
  
  <!-- Child Components -->
  <rect x="150" y="260" width="100" height="50" class="box"/>
  <text x="200" y="290" text-anchor="middle" class="component">NavMenu</text>
  
  <rect x="280" y="260" width="100" height="50" class="box"/>
  <text x="330" y="290" text-anchor="middle" class="component">UserProfile</text>
  
  <rect x="410" y="260" width="100" height="50" class="box"/>
  <text x="460" y="290" text-anchor="middle" class="component">Dashboard</text>
  
  <rect x="540" y="260" width="100" height="50" class="box"/>
  <text x="590" y="290" text-anchor="middle" class="component">Settings</text>
  
  <!-- Connecting Lines -->
  <line x1="400" y1="110" x2="260" y2="160" class="arrow"/>
  <line x1="400" y1="110" x2="400" y2="160" class="arrow"/>
  <line x1="400" y1="110" x2="540" y2="160" class="arrow"/>
  
  <line x1="260" y1="210" x2="200" y2="260" class="arrow"/>
  <line x1="260" y1="210" x2="330" y2="260" class="arrow"/>
  <line x1="400" y1="210" x2="460" y2="260" class="arrow"/>
  <line x1="540" y1="210" x2="590" y2="260" class="arrow"/>
</svg>
